<?xml version="1.0" encoding="UTF-8" standalone="no"?>
<!-- Created with Inkscape (http://www.inkscape.org/) -->

<svg
   xmlns:dc="http://purl.org/dc/elements/1.1/"
   xmlns:cc="http://creativecommons.org/ns#"
   xmlns:rdf="http://www.w3.org/1999/02/22-rdf-syntax-ns#"
   xmlns:svg="http://www.w3.org/2000/svg"
   xmlns="http://www.w3.org/2000/svg"
   xmlns:sodipodi="http://sodipodi.sourceforge.net/DTD/sodipodi-0.dtd"
   xmlns:inkscape="http://www.inkscape.org/namespaces/inkscape"
   version="1.1"
   id="svg2"
   width="173.33333"
   height="146.66667"
   viewBox="0 0 173.33333 146.66667"
   sodipodi:docname="bakul_logo.svg"
   shape-rendering="crispEdges"
   inkscape:version="0.92.2 5c3e80d, 2017-08-06">
  <metadata
     id="metadata8">
    <rdf:RDF>
      <cc:Work
         rdf:about="">
        <dc:format>image/svg+xml</dc:format>
        <dc:type
           rdf:resource="http://purl.org/dc/dcmitype/StillImage" />
        <dc:title></dc:title>
      </cc:Work>
    </rdf:RDF>
  </metadata>
  <defs
     id="defs6">
    <inkscape:perspective
       sodipodi:type="inkscape:persp3d"
       inkscape:vp_x="19.437752 : 45.943776 : 1"
       inkscape:vp_y="0 : 1000 : 0"
       inkscape:vp_z="173.33333 : 73.333335 : 1"
       inkscape:persp3d-origin="86.666665 : 48.88889 : 1"
       id="perspective6379" />
  </defs>
  <sodipodi:namedview
     pagecolor="#ffffff"
     bordercolor="#666666"
     borderopacity="1"
     objecttolerance="10"
     gridtolerance="10"
     guidetolerance="10"
     inkscape:pageopacity="0"
     inkscape:pageshadow="2"
     inkscape:window-width="1440"
     inkscape:window-height="877"
     id="namedview4"
     showgrid="false"
     inkscape:zoom="4.5272726"
     inkscape:cx="71.867467"
     inkscape:cy="73.333336"
     inkscape:window-x="0"
     inkscape:window-y="1"
     inkscape:window-maximized="1"
     inkscape:current-layer="layer4" />
  <g
     inkscape:groupmode="layer"
     id="layer3"
     inkscape:label="Vector"
     style="display:none"
     sodipodi:insensitive="true">
    <path
       id="path3887"
       style="fill:#a19f9e;stroke-width:1.33333337"
       d="m 43.486328,2.2988277 c -16.266372,0.0849 -25.350594,5.75654 -28.822266,17.9941403 -0.855997,3.01738 -2.864996,6.98698 -4.46289,8.82032 -5.9414285,6.81685 -7.3135679,9.93913 -7.3085939,16.6289 0.00561,7.547538 3.1539218,13.884222 8.7050779,17.52149 2.966233,1.943549 3.377933,2.957688 2.691406,6.617187 -0.497742,2.653196 0.0176,6.388741 1.332032,9.673829 2.562448,6.404189 8.189503,9.558593 17.05664,9.558593 3.329227,0 6.428925,0.607677 6.888672,1.351563 1.052356,1.702748 -1.360231,14.09902 -4.847656,24.90624 -1.929918,5.98064 -4.685441,10.52232 -9.984375,16.46094 -4.024848,4.51074 -7.086554,8.89362 -6.804687,9.74024 1.306248,3.92351 12.399636,2.29349 18.326171,-2.69336 3.590014,-3.0208 4.546346,-3.2636 7.525391,-1.90625 1.877107,0.85523 4.586531,1.182 6.021484,0.72656 1.515306,-0.48093 3.548493,0.0237 4.84961,1.20117 3.252833,2.94377 9.214905,5.04991 17.568359,6.20703 8.730346,1.20932 10.720417,1.09794 11.070313,-0.61719 0.144599,-0.70879 -2.521265,-2.07412 -5.923828,-3.03515 -7.742999,-2.18692 -8.332914,-3.54516 -11.734376,-27.00977 -1.435113,-9.9 -3.013804,-19.948689 -3.509765,-22.332023 l -0.902344,-4.333984 7.166016,-0.0059 c 9.559484,-0.0045 15.017042,-3.411348 18.669922,-11.648397 1.547889,-3.490406 4.480784,-9.646354 6.517578,-13.679688 8.079131,-15.99861 6.742261,-24.43415 -5.837891,-36.83008 -8.85201,-8.72238 -13.060841,-11.1631 -19.269531,-11.17773 -2.552959,-0.006 -4.212194,-1.12173 -5.785156,-3.88672 C 58.948948,3.9893677 54.876527,2.2393677 43.486328,2.2988277 Z"
       inkscape:connector-curvature="0" />
  </g>
  <g
     inkscape:groupmode="layer"
     id="layer8"
     inkscape:label="Vector 5"
     style="display:none"
     sodipodi:insensitive="true">
    <path
       id="path3885"
       style="fill:#91b265;stroke-width:1.33333337"
       d="m 44.402344,2.6425781 c -1.203949,-0.00231 -2.467506,0.049855 -3.792969,0.15625 -10.676835,0.8570339 -19.3663,5.7507106 -23.056641,12.9843749 -1.465431,2.872483 -2.666015,6.012899 -2.666015,6.978516 0,0.965616 -2.350757,4.884247 -5.2246096,8.708984 -8.85793494,11.788802 -8.76323546,19.652769 0.3457026,28.761719 5.054214,5.054215 5.517071,6.099072 5.53125,12.5 0.01269,5.727449 0.638308,7.608903 3.472657,10.443359 3.867596,3.867741 11.797897,6.15175 17.439453,5.023438 5.251517,-1.050302 5.866186,1.662698 3.289062,14.511721 -2.734794,13.63509 -7.133262,23.26358 -14.066406,30.78515 -2.999035,3.25356 -5.453125,6.59698 -5.453125,7.43164 0,3.42258 12.172264,0.13523 15.830078,-4.27539 2.084793,-2.51385 6.930133,-2.91361 9.09375,-0.75 1.04084,1.04079 2.219354,1.04918 4.125,0.0293 2.087181,-1.11702 3.349581,-0.89322 5.808594,1.02734 1.728374,1.3499 5.842578,3.68591 9.142578,5.19141 3.81289,1.73946 8.673778,2.71829 13.333985,2.68359 l 7.332031,-0.0547 -5.882813,-0.95313 C 70.404126,142.43582 67.61406,138.49366 65.625,124.91992 64.727119,118.79261 63.146115,108.67864 62.111328,102.44531 59.32416,85.656048 59.255254,85.965091 65.558594,86.810547 75.957662,88.205353 85.726219,82.255111 87.664062,73.34375 88.090313,71.383603 90.489225,65.667909 92.996094,60.642578 100.51845,45.563081 99.234127,38.280267 86.939453,26.287109 77.643247,17.218885 75.202119,15.779297 69.107422,15.779297 c -3.88181,0 -5.071485,-0.758738 -7.416016,-4.732422 C 58.335463,5.358975 52.829983,2.6587333 44.402344,2.6425781 Z M 168.59766,122.50195 c -0.0278,0.0422 -0.0452,0.0893 -0.0703,0.13282 0.003,0.0218 0.003,0.0507 0.006,0.0723 0.004,-0.009 0.009,-0.0181 0.0137,-0.0273 0.0168,-0.0593 0.0335,-0.11861 0.0508,-0.17774 z"
       inkscape:connector-curvature="0" />
  </g>
  <g
     inkscape:groupmode="layer"
     id="layer7"
     inkscape:label="Vector 4"
     style="display:inline"
     sodipodi:insensitive="true">
    <path
       id="path3883"
       style="fill:#659a25;stroke-width:1.33333337"
       d="m 43.21875,3.9355469 c -2.750251,0.065197 -5.733373,0.4940149 -8.914062,1.2949219 -8.789178,2.21314 -15.012969,8.0772492 -17.44336,16.4375002 -1.126993,3.87672 -3.516132,8.429468 -5.310547,10.115234 -1.7944079,1.685765 -4.2403993,5.624458 -5.4355466,8.753906 -2.8468098,7.454266 -1.0624565,13.114781 6.2714846,19.900391 4.741089,4.386622 5.304955,5.522723 4.603515,9.261719 -1.026762,5.473115 1.378521,12.353703 5.03711,14.408203 1.572866,0.883252 6.459375,1.922039 10.859375,2.30664 7.567757,0.661496 8.023473,0.899856 8.427734,4.421876 0.59292,5.165677 -3.278051,21.555502 -7.048828,29.843752 -1.726601,3.79511 -5.592762,9.56088 -8.591797,12.81445 -6.898025,7.48347 -7.05467,9.55976 -0.644531,8.51953 4.260875,-0.69144 6.464948,-1.82675 13.34375,-6.87305 1.171788,-0.85962 3.097338,-0.80885 5.638672,0.1504 2.232605,0.84271 4.709311,0.9807 5.878906,0.32617 1.327079,-0.74267 3.104827,-0.28549 5.175781,1.33203 1.734852,1.35501 5.854297,3.69567 9.154297,5.20117 3.81289,1.73946 8.673778,2.71829 13.333985,2.68359 7.206766,-0.0536 7.236715,-0.0711 1.78125,-0.96289 C 69.344283,142.23785 67.533289,139.41743 64.964844,121.48242 63.93808,114.3127 62.370528,104.13881 61.480469,98.875 59.29939,85.9761 59.769211,85.113281 68.978516,85.113281 c 6.738048,0 7.967792,-0.458026 11.972656,-4.46289 2.742773,-2.742774 5.059836,-6.838944 6.013672,-10.626953 0.8536,-3.389951 2.353695,-6.828677 3.332031,-7.640626 0.978338,-0.811947 2.772393,-4.470165 3.988281,-8.130859 3.067913,-9.236625 1.74984,-17.282601 -3.626953,-22.134765 -2.23706,-2.018789 -6.339094,-6.003125 -9.115234,-8.853516 C 77.284104,18.890896 75.423125,17.978063 69.634766,17.421875 63.717735,16.853324 62.497933,16.228821 60.765625,12.878906 57.627918,6.8112559 51.469503,3.7399569 43.21875,3.9355469 Z M 115.47656,115.25586 c -0.0263,0.0191 -0.063,0.0562 -0.0898,0.0762 0.0152,0.0171 0.0274,0.0358 0.043,0.0527 0.016,-0.0216 0.0321,-0.0421 0.0488,-0.0645 -0.001,-0.0215 -1.2e-4,-0.0429 -0.002,-0.0645 z m 0.004,0.0937 c -0.0148,0.0141 -0.0286,0.0288 -0.043,0.043 0.0158,0.0171 0.0326,0.0339 0.0488,0.0508 -0.002,-0.0313 -0.004,-0.0623 -0.006,-0.0937 z"
       inkscape:connector-curvature="0" />
  </g>
  <g
     inkscape:groupmode="layer"
     id="layer6"
     inkscape:label="Vector 3"
     style="display:none"
     sodipodi:insensitive="true">
    <path
       id="path3881"
       style="fill:#63605f;stroke-width:1.33333337"
       d="m 48.707031,22.681641 c -0.367858,0.01072 -0.749657,0.09066 -1.144531,0.242187 -2.010567,0.771527 -2.260423,2.018655 -1.632812,8.09961 0.706783,6.848089 0.581918,7.228303 -2.640626,8.037109 -1.860219,0.46689 -3.491393,0.668242 -3.623046,0.449219 -0.131648,-0.219022 -0.954603,-2.064315 -1.830078,-4.101563 -1.818479,-4.231634 -5.116883,-5.992492 -7.242188,-3.867187 -1.042429,1.042429 -0.830848,3.065971 0.755859,7.220703 2.84242,7.442771 2.776447,9.017578 -0.373047,9.017578 -1.417248,0 -2.956553,1.199905 -3.421874,2.666015 -0.700125,2.2059 -1.308484,2.417968 -3.527344,1.230469 -2.892612,-1.548077 -6.472656,-0.804043 -6.472656,1.345703 -2e-6,0.729518 3.56858,5.140698 7.929687,9.802735 5.31646,5.683312 8.858709,10.963289 10.751953,16.023437 1.553033,4.150855 3.384453,7.894476 4.070313,8.31836 1.947012,1.20332 1.442428,8.344006 -1.382813,19.554684 -3.189965,12.65799 -6.667595,19.63172 -13.464844,27.00586 -6.687118,7.25467 -6.79327,9.31978 -0.429687,8.28711 4.260875,-0.69144 6.464948,-1.82676 13.34375,-6.87305 1.171788,-0.85962 3.097338,-0.80885 5.638672,0.1504 2.232605,0.84271 4.709311,0.9807 5.878906,0.32617 1.327079,-0.74267 3.104827,-0.28549 5.175781,1.33203 1.734852,1.35501 5.854297,3.69567 9.154297,5.20117 3.81289,1.73946 8.673778,2.71829 13.333985,2.68359 7.206766,-0.0536 7.236715,-0.0711 1.78125,-0.96289 -9.991659,-1.63324 -11.802649,-4.45366 -14.371094,-22.38867 -1.026764,-7.16972 -2.616705,-17.47453 -3.533203,-22.898436 -1.584192,-9.375371 -1.51702,-10.141948 1.355468,-15.55664 2.3052,-4.345344 4.493631,-6.321678 9.228516,-8.335938 3.413368,-1.452075 7.404427,-2.858777 8.871094,-3.126953 1.607999,-0.294016 2.667969,-1.539732 2.667969,-3.136719 0,-2.151198 -1.126436,-2.772945 -6,-3.314453 -3.72483,-0.413869 -5.368659,-1.076476 -4.333985,-1.746093 2.249124,-1.455664 2.115875,-5.796867 -0.205078,-6.6875 -1.02927,-0.395007 -3.121173,-0.391398 -4.648437,0.0078 -3.066588,0.80193 -3.340656,2.536644 2.708984,-17.142578 2.771409,-9.015272 -1.086481,-12.248396 -5.5625,-4.66211 -2.214924,3.754017 -3.225237,4.347227 -6.5625,3.857422 -3.50423,-0.514312 -4.040037,-1.225798 -4.8125,-6.376953 -0.960947,-6.408052 -2.856632,-9.756654 -5.431641,-9.68164 z m -1.693359,25.15625 c 0.680074,0.11996 1.207031,0.763231 1.207031,1.863281 0,1.056721 -0.557572,2.265592 -1.240234,2.6875 -1.585185,0.979699 -3.18109,-1.516038 -2.09375,-3.275391 0.613036,-0.991914 1.446879,-1.395351 2.126953,-1.27539 z m -11.609375,7.11914 c 0.478125,0.02118 0.816406,0.552697 0.816406,1.410157 0,1.143278 -0.600651,2.078124 -1.333984,2.078124 -0.733334,0 -1.332031,-0.563851 -1.332031,-1.253906 -10e-7,-0.690055 0.598697,-1.6249 1.332031,-2.078125 0.183333,-0.113306 0.358203,-0.163309 0.517578,-0.15625 z m 54.699219,44.779297 c 0.03149,0.07771 0.06065,0.15655 0.0918,0.234375 0.02453,-0.0081 0.03858,-0.0098 0.0625,-0.01758 -0.04973,-0.07343 -0.100547,-0.145603 -0.154296,-0.216797 z m 0.427734,0.847652 c -0.0043,0.003 -0.0093,0.007 -0.01367,0.01 0.01174,0.0137 0.02558,0.0297 0.03711,0.043 -9.69e-4,-0.003 -0.0029,-0.006 -0.0039,-0.01 -0.0065,-0.0142 -0.01259,-0.0288 -0.01953,-0.043 z m -0.02344,0.0176 c -0.01802,0.013 -0.03799,0.0257 -0.05664,0.0391 0.01403,0.0376 0.02754,0.0754 0.04102,0.11329 0.07274,0.11195 0.105168,0.15947 0.171874,0.26171 -0.02751,-0.12287 -0.06942,-0.2407 -0.103515,-0.36132 -0.02607,-0.0282 -0.0393,-0.0393 -0.05273,-0.0527 z m 36.53711,12.99414 c -0.0208,0.0102 -0.0228,0.0125 -0.0449,0.0234 0.005,0.005 0.0325,-0.0159 0.041,-0.0156 10e-4,-0.003 0.002,-0.005 0.004,-0.008 z m -54.785156,2.00782 c 1.89e-4,0.011 -2.19e-4,0.0223 0,0.0332 0.0029,0.007 0.005,0.007 0.0078,0.0137 -0.0026,-0.0176 -0.0052,-0.0294 -0.0078,-0.0469 z m 88.742186,10.99414 c -0.009,0.0113 -0.0163,0.0236 -0.0254,0.0352 0.0405,0.01 0.0699,0.0133 0.11133,0.0234 -0.029,-0.0189 -0.057,-0.0396 -0.0859,-0.0586 z"
       inkscape:connector-curvature="0" />
  </g>
  <g
     inkscape:groupmode="layer"
     id="layer5"
     inkscape:label="Vector 2"
     style="display:none"
     sodipodi:insensitive="true">
    <path
       id="path3879"
       style="fill:#575c1b;stroke-width:1.33333337"
       d="m 48.707031,22.681641 c -0.367858,0.01072 -0.749657,0.09066 -1.144531,0.242187 -2.010567,0.771527 -2.260423,2.018655 -1.632812,8.09961 0.706783,6.848089 0.581918,7.228303 -2.640626,8.037109 -1.860221,0.46689 -3.491393,0.668242 -3.623046,0.449219 -0.131648,-0.219022 -0.954603,-2.064315 -1.830078,-4.101563 -1.818479,-4.231634 -5.116883,-5.992492 -7.242188,-3.867187 -1.042429,1.042429 -0.830848,3.065971 0.755859,7.220703 2.84242,7.442771 2.776447,9.017578 -0.373047,9.017578 -1.417248,0 -2.956553,1.199905 -3.421874,2.666015 -0.700125,2.205901 -1.308484,2.417968 -3.527344,1.230469 -2.892612,-1.548077 -6.472656,-0.804043 -6.472656,1.345703 0,0.729518 3.56858,5.140698 7.929687,9.802735 5.273963,5.637882 8.861196,10.971462 10.714844,15.925781 1.532805,4.096789 3.665527,7.785612 4.738281,8.197266 2.62847,1.008639 2.442585,6.037409 -0.710938,19.191404 -3.184111,13.28157 -6.476276,20.0401 -13.433593,27.58789 -2.881236,3.12577 -5.238281,6.06717 -5.238281,6.53516 -2e-6,2.93547 11.17293,-0.93878 14.59375,-5.06055 2.002209,-2.41252 6.872953,-2.754 8.996093,-0.63086 1.04084,1.0408 2.219354,1.04918 4.125,0.0293 2.095213,-1.12132 3.355379,-0.88776 5.876953,1.0957 1.765552,1.38879 5.279105,3.42738 7.808594,4.5293 7.37069,3.21089 7.586814,3.09611 4.685547,-2.49609 -1.052582,-2.02885 -2.524631,-7.64802 -3.271484,-12.48633 -0.746852,-4.8383 -2.345015,-15.15514 -3.550782,-22.92774 L 58.626953,88.181641 62.423828,82.71875 c 3.583808,-5.155339 11.366439,-9.856733 18.462891,-11.154297 1.607999,-0.294016 2.667969,-1.539732 2.667969,-3.136719 0,-2.151198 -1.126436,-2.772945 -6,-3.314453 -3.72483,-0.413869 -5.368659,-1.076476 -4.333985,-1.746093 2.249124,-1.455664 2.115875,-5.796867 -0.205078,-6.6875 -1.02927,-0.395007 -3.121173,-0.391494 -4.648437,0.0078 -3.066588,0.80193 -3.340656,2.536644 2.708984,-17.142578 2.771409,-9.015272 -1.086481,-12.248396 -5.5625,-4.66211 -2.214924,3.754017 -3.225237,4.347227 -6.5625,3.857422 -3.50423,-0.514312 -4.040037,-1.225798 -4.8125,-6.376953 -0.960947,-6.408052 -2.856632,-9.756654 -5.431641,-9.68164 z m -1.693359,25.15625 c 0.680074,0.11996 1.207031,0.763231 1.207031,1.863281 0,1.056721 -0.557572,2.265592 -1.240234,2.6875 -1.585185,0.979699 -3.18109,-1.516038 -2.09375,-3.275391 0.613036,-0.991914 1.446879,-1.395351 2.126953,-1.27539 z m -11.609375,7.11914 c 0.478125,0.02118 0.816406,0.552697 0.816406,1.410157 0,1.143276 -0.600651,2.078124 -1.333984,2.078124 -0.733334,10e-7 -1.332031,-0.563851 -1.332031,-1.253906 -10e-7,-0.690055 0.598697,-1.6249 1.332031,-2.078125 0.183333,-0.113306 0.358203,-0.163309 0.517578,-0.15625 z M 127.13672,116.5957 c -0.003,0.0137 -0.007,0.0274 -0.01,0.041 10e-4,5.6e-4 0.003,6.5e-4 0.004,0.002 0.0733,0.0126 0.20751,0.0568 0.33398,0.0977 0.015,-7.4e-4 0.0316,-0.001 0.0469,-0.002 -0.0772,-0.0371 -0.15527,-0.0735 -0.22852,-0.11524 -0.0429,-0.0245 -0.0977,-0.0157 -0.14648,-0.0234 z"
       inkscape:connector-curvature="0" />
  </g>
  <g
     inkscape:groupmode="layer"
     id="layer4"
     inkscape:label="Vector 1"
     style="display:inline">
    <path
       id="path3877"
       style="fill:#4c2411;stroke-width:1.42041409"
       d="m 49.736023,24.190437 c -0.102675,0.01393 -0.203421,0.05 -0.305084,0.10728 -0.664958,0.374669 -0.366099,5.947699 0.664646,12.382899 1.955841,12.210832 0.970218,18.293238 -2.963647,18.293238 -1.148285,0 -2.91898,-1.984148 -3.935549,-4.408416 C 40.0893,43.155791 33.590762,31.923917 32.409591,31.920561 c -1.770698,-0.0052 -1.35813,1.798708 2.604088,11.395526 4.290559,10.392103 4.689506,15.096907 1.379401,16.254917 -2.486923,0.870027 -6.272916,-0.615641 -12.89186,-5.060042 -7.122065,-4.782231 -5.810929,-1.687198 3.20771,7.575162 5.627862,5.779954 9.63146,11.420463 11.240064,15.835731 1.37417,3.771798 3.116713,7.205031 3.872351,7.630791 3.65681,2.060403 -1.230023,27.378084 -7.372068,38.191704 -1.607231,2.82966 -5.652252,7.86606 -8.989001,11.19289 -3.336744,3.32682 -6.066756,6.22642 -6.066756,6.44275 0,1.97908 9.052047,-1.68289 16.870988,-6.82418 3.053198,-2.00764 4.356707,-2.1765 6.968928,-0.90196 1.76747,0.86237 4.909168,1.18103 6.979822,0.70725 2.666915,-0.61022 5.337761,0.10762 9.158974,2.46148 2.966879,1.82761 6.900998,3.72954 8.742754,4.22762 3.145609,0.85071 3.250127,0.67336 1.743322,-2.91642 -1.872842,-4.46176 -8.812489,-43.731001 -8.812489,-49.867345 0,-7.313503 6.240117,-13.757049 16.735883,-17.284012 l 9.29844,-3.125029 -8.890939,-0.677452 C 70.629197,66.603325 69.0296,66.006696 67.498289,63.1927 c -1.99593,-3.66779 -1.375375,-8.013945 2.708684,-18.942878 2.891302,-7.737134 3.654682,-13.795629 1.460029,-11.586247 -0.703905,0.70863 -2.517832,4.514822 -4.031431,8.457245 -3.212999,8.368827 -6.85289,12.165388 -9.087058,9.478393 C 57.757588,49.647986 56.228503,44.598021 55.151215,39.376525 52.945108,28.683762 51.276191,23.981276 49.736023,24.190437 Z m 11.399142,15.865529 c -1.875874,0 -3.219486,2.116987 -2.03097,3.200522 1.67535,1.527366 3.429984,0.931115 3.429984,-1.166173 0,-1.118894 -0.629103,-2.034349 -1.399014,-2.034349 z m -16.343637,0.331772 c -0.985629,-0.04002 -2.22635,0.711186 -2.743551,2.125736 -0.323871,0.885789 0.47181,1.611186 1.767292,1.611186 1.295479,0 2.355664,-0.966535 2.355664,-2.147586 0,-1.047816 -0.612804,-1.558199 -1.379405,-1.589336 z m -15.214832,9.331379 c -0.297657,0.01192 -0.562903,0.09996 -0.762705,0.282108 -0.436593,0.398031 -0.351909,1.373884 0.187407,2.169442 1.211988,1.787816 3.780828,1.904078 3.780828,0.170853 0,-1.300134 -1.915694,-2.674018 -3.20553,-2.622403 z m 45.49196,8.121498 c -0.203386,-0.0159 -0.446739,0.01457 -0.725654,0.09934 -1.073889,0.326343 -2.246125,1.395038 -2.604087,2.374068 -0.371909,1.017174 0.185229,1.5251 1.300955,1.18604 1.073884,-0.326342 2.246123,-1.39305 2.604085,-2.372081 0.278931,-0.762879 0.03487,-1.239681 -0.575299,-1.287361 z"
       inkscape:connector-curvature="0" />
  </g>
</svg>
